<?xml version="1.0" encoding="utf-8"?>
<!-- Generator: Adobe Illustrator 16.0.0, SVG Export Plug-In . SVG Version: 6.00 Build 0)  -->
<!DOCTYPE svg PUBLIC "-//W3C//DTD SVG 1.1//EN" "http://www.w3.org/Graphics/SVG/1.1/DTD/svg11.dtd">
<svg version="1.1" id="Layer_1" xmlns="http://www.w3.org/2000/svg" xmlns:xlink="http://www.w3.org/1999/xlink" x="0px" y="0px"
	 width="400px" height="77px" viewBox="0 0 400 77" enable-background="new 0 0 400 77" xml:space="preserve">
<g>
	<g>
		<path fill="#FFFFFF" d="M40.193,76.56c-20.982,0-38.051-17.069-38.051-38.053c0-20.98,17.068-38.051,38.051-38.051
			s38.051,17.07,38.051,38.051C78.244,59.49,61.176,76.56,40.193,76.56z M40.193,5.608c-18.141,0-32.898,14.759-32.898,32.898
			c0,18.141,14.758,32.9,32.898,32.9s32.899-14.76,32.899-32.9C73.093,20.367,58.334,5.608,40.193,5.608z"/>
		<path fill="#FFFFFF" d="M55.845,36.37c-1.703-3.909-6.333-5.523-10.071-3.609l-13.364,6.849c-1.036,0.532-2.374,0.28-2.994-0.705
			c-0.697-1.105-0.283-2.549,0.853-3.131l15.006-7.688c3.488-1.786,5.207-5.98,3.645-9.574c-1.664-3.826-6.453-5.488-9.851-3.725
			c-1.191,0.618-1.541,1.576-1.514,2.43c0.043,1.425,1.375,2.992,3.492,2.327c1.11-0.349,2.428-0.189,3.048,0.796
			c0.698,1.105,0.232,2.461-0.903,3.042l-15.007,7.688c-3.488,1.788-5.206,5.983-3.642,9.575c1.703,3.91,6.334,5.524,10.07,3.61
			l13.365-6.849c1.036-0.531,2.373-0.28,2.994,0.705c0.696,1.104,0.284,2.548-0.853,3.13l-15.006,7.688
			c-3.487,1.787-5.207,5.979-3.645,9.575c1.664,3.825,6.453,5.487,9.851,3.723c1.191-0.617,1.541-1.577,1.514-2.428
			c-0.044-1.425-1.374-2.993-3.492-2.327c-1.111,0.348-2.428,0.188-3.048-0.797c-0.698-1.105-0.233-2.459,0.903-3.041l15.007-7.688
			C55.691,44.158,57.408,39.965,55.845,36.37z"/>
	</g>
	<g>
		<path fill="#FFFFFF" d="M103.729,40.97c-5.27-1.621-8.976-3.822-8.976-9.266c0-5.096,4.285-8.513,10.714-8.513
			c3.319,0,6.303,0.768,8.209,1.515c0.328,0.13,0.535,0.453,0.535,0.805v4.247c0,0.622-0.63,1.041-1.202,0.796
			c-1.847-0.792-4.152-1.42-6.268-1.514c-0.985,0-1.97,0.058-2.838,0.231c-1.449,0.406-2.665,1.215-2.665,2.721
			c0,1.854,1.738,2.839,5.271,3.881c6.371,1.97,9.44,4.229,9.44,9.266c0,5.443-4.46,8.514-11.235,8.514
			c-3.797,0-6.952-0.79-9.147-1.688c-0.323-0.133-0.523-0.452-0.523-0.803v-4.363c0-0.625,0.635-1.045,1.207-0.794
			c2.635,1.153,5.894,1.971,8.29,1.971c2.549,0,4.923-0.81,4.923-3.01C109.463,42.938,107.493,42.127,103.729,40.97z"/>
		<path fill="#FFFFFF" d="M120.965,23.943h4.785c0.465,0,0.848,0.368,0.867,0.832l0.082,1.891c0.058,1.217-0.175,2.026-0.117,2.026
			h0.117c1.389-2.896,5.326-5.501,9.785-5.501c7.587,0,13.493,6.021,13.493,15.229c0,9.323-5.906,15.231-13.318,15.231
			c-4.459,0-8.05-2.375-9.556-5.039h-0.115c0,0,0.174,0.812,0.174,2.374v13.784c0,0.478-0.39,0.867-0.87,0.867h-5.327
			c-0.48,0-0.869-0.39-0.869-0.867V24.812C120.096,24.333,120.484,23.943,120.965,23.943z M143.261,38.421
			c0-5.386-3.244-9.209-7.935-9.209c-3.879,0-7.991,2.955-7.991,9.209c0,6.255,4.112,9.208,7.991,9.208
			C140.017,47.629,143.261,43.866,143.261,38.421z"/>
		<path fill="#FFFFFF" d="M178.332,11.608c2.235-0.002,4.127,1.783,4.117,4.017c-0.011,2.363-1.687,3.917-4.111,3.917
			c-2.49,0-4.112-1.562-4.112-3.938C174.226,13.174,175.845,11.61,178.332,11.608z M181.869,24.812V52.03
			c0,0.479-0.388,0.869-0.868,0.869h-5.327c-0.479,0-0.868-0.39-0.868-0.869V24.812c0-0.479,0.389-0.869,0.868-0.869h5.327
			C181.481,23.943,181.869,24.333,181.869,24.812z"/>
		<path fill="#FFFFFF" d="M193.128,23.943c0.464,0,0.846,0.364,0.867,0.829l0.136,2.877c0,1.1-0.232,1.854-0.232,2.085h0.116
			c1.158-2.663,4.98-6.543,10.482-6.543c6.832,0,10.018,4.111,10.018,11.581V52.03c0,0.479-0.389,0.869-0.868,0.869h-5.329
			c-0.479,0-0.868-0.39-0.868-0.869V35.988c0-3.358-0.81-6.368-4.748-6.368c-4.807,0-8.224,3.821-8.224,8.917V52.03
			c0,0.479-0.39,0.869-0.869,0.869h-5.326c-0.481,0-0.869-0.39-0.869-0.869V24.812c0-0.479,0.388-0.869,0.869-0.869H193.128z"/>
		<path fill="#FFFFFF" d="M235.472,48.15c7.587,0.868,11.525,3.185,11.525,8.396c0,5.849-5.907,9.267-14.535,9.267
			c-7.935,0-13.61-2.606-13.61-7.702c0-3.359,3.359-6.081,7.645-6.949c-2.548-0.349-4.285-1.737-4.285-3.823
			c0-1.735,1.506-3.473,4.285-4.342c-4.11-1.564-6.834-4.981-6.834-9.382c0-6.255,5.387-10.424,12.163-10.424
			c1.737,0,3.357,0.231,4.806,0.752h9.786c0.479,0,0.869,0.39,0.869,0.869v3.359c0,0.479-0.39,0.868-0.869,0.868h-2.837
			c-1.273,0-1.391-0.174-1.622-0.231c1.158,1.274,1.911,2.896,1.911,4.807c0,5.676-4.4,9.496-10.307,10.135
			c-2.549,0.231-4.518,1.157-4.518,2.142C229.045,47.166,231.014,47.629,235.472,48.15z M239.989,57.068
			c0-2.434-2.141-4.112-7.76-4.112c-3.88,0-6.603,1.912-6.603,4.228c0,2.663,2.896,3.998,6.95,3.998
			C237.037,61.182,239.989,59.559,239.989,57.068z M237.558,33.788c0-3.127-2.258-5.502-5.732-5.502
			c-3.359,0-5.677,2.375-5.677,5.502c0,3.128,2.317,5.386,5.677,5.386C235.3,39.174,237.558,36.916,237.558,33.788z"/>
		<path fill="#FFFFFF" d="M154.395,23.943h4.789c0.464,0,0.847,0.364,0.869,0.827c0.041,0.881,0.075,1.752,0.075,2.59
			c0,0.985-0.059,1.795,0,2.026c1.707-3.359,4.982-6.649,9.841-6.131c0.432,0.046,0.756,0.434,0.756,0.869v5.055
			c0,0.509-0.438,0.916-0.942,0.859c-5.834-0.649-9.191,5.237-9.191,10.409V52.03c0,0.479-0.388,0.869-0.869,0.869h-5.327
			c-0.479,0-0.869-0.39-0.869-0.869V24.812C153.525,24.333,153.915,23.943,154.395,23.943z"/>
		<g>
			<path fill="#FFFFFF" d="M252.156,11.203h5.326c0.479,0,0.869,0.389,0.869,0.868v13.494c0,1.563-0.175,2.375-0.175,2.375h0.117
				c1.563-2.491,5.095-4.749,9.556-4.749c7.411,0,13.318,5.906,13.318,15.229c0,9.208-5.907,15.231-13.435,15.231
				c-4.518,0-8.456-2.722-9.845-5.792h-0.117c-0.058,0,0.233,0.81,0.117,2.027l-0.085,2.176c-0.018,0.467-0.401,0.836-0.866,0.836
				h-4.781c-0.481,0-0.869-0.39-0.869-0.869V12.071C251.287,11.592,251.675,11.203,252.156,11.203z M258.525,38.421
				c0,6.255,4.112,9.208,7.991,9.208c4.691,0,7.935-3.823,7.935-9.208c0-5.443-3.243-9.209-7.935-9.209
				C262.638,29.212,258.525,32.167,258.525,38.421z"/>
			<path fill="#FFFFFF" d="M314.799,38.421c0,8.745-6.369,15.231-15.172,15.231c-8.745,0-15.174-6.486-15.174-15.231
				c0-8.743,6.429-15.229,15.174-15.229C308.43,23.191,314.799,29.678,314.799,38.421z M308.081,38.421
				c0-5.443-3.59-9.209-8.454-9.209c-4.809,0-8.455,3.766-8.455,9.209c0,5.445,3.646,9.208,8.455,9.208
				C304.491,47.629,308.081,43.866,308.081,38.421z"/>
			<path fill="#FFFFFF" d="M319.443,25.818c0-0.347,0.203-0.654,0.52-0.797c1.846-0.835,5.447-1.83,9.903-1.83
				c8.571,0,12.8,4.111,12.8,11.35V52.03c0,0.479-0.39,0.869-0.869,0.869h-4.724c-0.467,0-0.851-0.369-0.868-0.836l-0.084-2.176
				c-0.058-1.333,0.116-2.2,0.116-2.2h-0.116c-0.521,1.272-3.59,5.965-9.497,5.965c-5.155,0-9.207-3.07-9.207-8.628
				c0-7.124,7.007-10.599,18.241-9.036v-0.209c0-3.562-2.846-6.457-6.405-6.56c-3.28-0.094-6.481,0.787-8.593,1.772
				c-0.568,0.268-1.217-0.166-1.217-0.794V25.818z M335.483,40.158c-7.933-1.273-11.291,0.984-11.291,4.286
				c0,2.2,1.562,3.706,3.996,3.706C332.357,48.15,335.483,44.213,335.483,40.158z"/>
			<path fill="#FFFFFF" d="M395.699,52.899h-4.781c-0.467,0-0.851-0.369-0.869-0.836l-0.083-2.176
				c-0.059-1.218,0.116-2.027,0.116-2.027h-0.116c-1.39,3.07-5.328,5.792-9.788,5.792c-7.585,0-13.492-6.023-13.492-15.231
				c0-9.323,5.907-15.229,13.319-15.229c4.459,0,7.991,2.258,9.555,4.749h0.116c0,0-0.174-0.812-0.174-2.375V12.071
				c0-0.479,0.389-0.868,0.868-0.868h5.329c0.479,0,0.869,0.389,0.869,0.868V52.03C396.568,52.51,396.178,52.899,395.699,52.899z
				 M373.403,38.421c0,5.385,3.241,9.208,7.934,9.208c3.88,0,7.992-2.953,7.992-9.208c0-6.254-4.112-9.209-7.992-9.209
				C376.645,29.212,373.403,32.978,373.403,38.421z"/>
			<path fill="#FFFFFF" d="M349.587,23.943h4.789c0.464,0,0.846,0.364,0.869,0.827c0.041,0.881,0.074,1.752,0.074,2.59
				c0,0.985-0.058,1.795,0,2.026c1.708-3.359,4.983-6.649,9.841-6.131c0.434,0.046,0.757,0.434,0.757,0.869v5.055
				c0,0.509-0.438,0.916-0.943,0.859c-5.833-0.649-9.189,5.237-9.189,10.409V52.03c0,0.479-0.389,0.869-0.868,0.869h-5.329
				c-0.479,0-0.869-0.39-0.869-0.869V24.812C348.718,24.333,349.107,23.943,349.587,23.943z"/>
		</g>
	</g>
</g>
</svg>
